@startuml
'https://plantuml.com/class-diagram
hide circle
class SubscriptionsRepository <<interface>>



class Subscriptions {
    -startDate
    -endDate
    -paymentType
    -activeStatus
    -planName
    -username
}



class PlansDetailsViewMapper{
    +toPlansView(PlansDetails plan):PlansDetailsView
}
class SubscriptionsController{
    planDetails():ResponseEntity<PlansDetailsView>
    }
class SubscriptionsService{
 +planDetails(String auth):Plan
}

interface SubscriptionsRepository
{
+getSubsFromOtherApi(String name,String auth) :HttpResponse<String>
+getPlansFromOtherAPI(String name): HttpResponse<String>
+isPresent(String auth, String username): Optional<Subscriptions>
+subExistLocal(String planName): PlansDetails
+subExistNotLocal(String username, String auth): PlansDetails


}



SubscriptionsController ..> SubscriptionsService: uses >
SubscriptionsService ..> SubscriptionsRepository: uses >
SubscriptionsService ..> Subscriptions: uses >
SubscriptionsRepository ..> Subscriptions: < record
SubscriptionsController ..>PlansDetailsViewMapper: uses >
SubscriptionsController ..>SubscriptionsRepository: HTTP API Call <

@enduml


